<svg width="313" height="116" viewBox="0 0 313 116" fill="none" xmlns="http://www.w3.org/2000/svg">
<path d="M0 27.736C0 12.4178 12.417 0 27.7342 0H285.266C300.583 0 313 12.4178 313 27.736V59.4343C313 74.7525 300.583 87.1704 285.266 87.1704H27.7342C12.417 87.1704 0 74.7525 0 59.4343V27.736Z" fill="#7747A7"/>
<path d="M32.029 81.6866C24.4747 81.6866 18.5687 79.5919 14.3108 75.4024C10.053 71.1442 7.92405 65.2378 7.92405 57.683H21.9338C21.9338 61.2544 22.8265 64.0702 24.6121 66.1306C26.4663 68.1223 29.0073 69.1182 32.235 69.1182H43.6694C46.6912 69.1182 49.1291 68.5001 50.9833 67.2638C52.9062 65.9589 53.8677 64.2419 53.8677 62.1129V58.6102C53.8677 55.2449 51.3954 53.1502 46.4508 52.326L27.4965 49.1324C21.3157 48.1022 16.6115 46.1448 13.3837 43.2603C10.2247 40.3071 8.64514 36.564 8.64514 32.0312V26.2621C8.64514 22.622 9.60659 19.4284 11.5295 16.6812C13.5211 13.8654 16.3024 11.702 19.8735 10.191C23.5133 8.68006 27.7025 7.92458 32.4411 7.92458H44.0815C48.5454 7.92458 52.4942 8.85175 55.928 10.7061C59.3617 12.5605 62.0057 15.1703 63.8599 18.5356C65.7828 21.8322 66.7443 25.6783 66.7443 30.0738H52.7346C52.7346 27.1892 51.9448 24.8885 50.3653 23.1715C48.7857 21.3858 46.6912 20.493 44.0815 20.493H32.4411C29.5567 20.493 27.2218 21.1111 25.4362 22.3473C23.7193 23.5835 22.8609 25.2319 22.8609 27.2922V30.0738C22.8609 33.5078 25.2302 35.6368 29.9688 36.461L48.8201 39.7576C55.0695 40.8565 59.8424 42.8139 63.1388 45.6297C66.4352 48.3769 68.0835 51.9483 68.0835 56.3438V63.1431C68.0835 66.7831 67.0533 70.011 64.9931 72.8269C63.0015 75.6428 60.1858 77.8405 56.546 79.4201C52.9062 80.9311 48.6827 81.6866 43.8755 81.6866H32.029Z" fill="white"/>
<path d="M85.3181 80.0383C82.3651 80.0383 79.9614 79.1454 78.1072 77.3598C76.253 75.5741 75.3259 73.239 75.3259 70.3544V7.92458H130.335V20.2869H89.5416V36.9761H127.244V49.3384H89.5416V67.6759H130.335V80.0383H85.3181Z" fill="white"/>
<path d="M149.524 79.2458C146.316 79.2458 143.706 78.3628 141.692 76.5968C139.678 74.8307 138.671 72.5213 138.671 69.6684V7.9246H176.04C182.007 7.9246 187.229 8.94348 191.704 10.9812C196.254 13.019 199.76 15.9058 202.221 19.6417C204.757 23.3775 206.025 27.6908 206.025 32.5814V52.5513C206.025 61.3136 203.527 67.9703 198.529 72.5213C193.532 77.0043 186.184 79.2458 176.488 79.2458H149.524Z" fill="#FFC30D"/>
<path d="M58.0987 111.118C56.922 111.118 55.9777 110.799 55.2658 110.16C54.554 109.506 54.1981 108.649 54.1981 107.588H56.1811C56.1811 108.126 56.3554 108.561 56.7041 108.896C57.0527 109.23 57.5176 109.397 58.0987 109.397H60.0163C60.5683 109.397 61.0114 109.295 61.3456 109.092C61.6797 108.874 61.8468 108.591 61.8468 108.242V107.61C61.8468 107.377 61.7451 107.174 61.5417 107C61.3528 106.811 61.1059 106.687 60.8008 106.629L57.0309 105.975C56.2319 105.83 55.5927 105.532 55.1133 105.082C54.6339 104.617 54.3942 104.079 54.3942 103.469V102.75C54.3942 101.893 54.7356 101.203 55.4184 100.68C56.1012 100.157 57.0164 99.8953 58.1641 99.8953H59.9945C61.0841 99.8953 61.9557 100.193 62.6095 100.789C63.2777 101.384 63.6118 102.176 63.6118 103.164H61.6288C61.6143 102.699 61.4545 102.329 61.1494 102.053C60.8589 101.762 60.4739 101.617 59.9945 101.617H58.1858C57.6483 101.617 57.2198 101.726 56.9002 101.944C56.5951 102.162 56.4426 102.452 56.4426 102.815V103.36C56.4426 103.593 56.5443 103.796 56.7476 103.97C56.951 104.145 57.2125 104.268 57.5321 104.341L61.3456 105.017C62.101 105.147 62.7111 105.438 63.176 105.888C63.6554 106.339 63.8951 106.862 63.8951 107.457V108.307C63.8951 109.15 63.5392 109.833 62.8274 110.356C62.1155 110.864 61.1785 111.118 60.0163 111.118H58.0987Z" fill="white"/>
<path d="M69.6975 111.118C68.637 111.118 67.7799 110.763 67.1262 110.051C66.487 109.339 66.1674 108.402 66.1674 107.239V100.07H68.1939V107.283C68.1939 107.893 68.3465 108.387 68.6516 108.765C68.9566 109.143 69.3561 109.331 69.8501 109.331H71.1575C71.7677 109.331 72.327 109.084 72.8354 108.591C73.3439 108.097 73.678 107.472 73.8378 106.716V100.07H75.8644V110.944H73.9468V109.375C73.5981 109.884 73.1623 110.305 72.6393 110.639C72.1163 110.959 71.6006 111.118 71.0922 111.118H69.6975Z" fill="white"/>
<path d="M83.5371 111.118C83.0577 111.118 82.5638 110.973 82.0553 110.683C81.5469 110.378 81.1474 110 80.8568 109.549V110.944H78.9174V95.6893H80.944V101.203C81.2636 100.811 81.6631 100.498 82.1425 100.266C82.6219 100.019 83.1013 99.8953 83.5807 99.8953H85.1279C85.8978 99.8953 86.5806 100.07 87.1762 100.418C87.7864 100.767 88.2585 101.254 88.5927 101.878C88.9268 102.503 89.0939 103.23 89.0939 104.058V106.76C89.0939 107.617 88.9195 108.38 88.5709 109.048C88.2367 109.702 87.7646 110.21 87.1544 110.574C86.5443 110.937 85.8397 111.118 85.0407 111.118H83.5371ZM84.91 109.331C85.5492 109.331 86.0649 109.092 86.4571 108.612C86.8494 108.118 87.0455 107.472 87.0455 106.673V104.123C87.0455 103.397 86.8494 102.808 86.4571 102.358C86.0794 101.907 85.5855 101.682 84.9753 101.682H83.5589C82.8616 101.682 82.266 101.937 81.772 102.445C81.2781 102.954 81.0021 103.615 80.944 104.428V106.825C81.0021 107.523 81.2781 108.118 81.772 108.612C82.266 109.092 82.8253 109.331 83.4499 109.331H84.91Z" fill="white"/>
<path d="M95.5204 111.118C94.242 111.118 93.2105 110.755 92.426 110.029C91.6561 109.288 91.2711 108.322 91.2711 107.13V104.123C91.2711 102.845 91.6561 101.82 92.426 101.05C93.2105 100.28 94.242 99.8953 95.5204 99.8953H97.3072C98.5421 99.8953 99.5372 100.273 100.293 101.028C101.048 101.784 101.426 102.786 101.426 104.036V106.084H93.2977V107.13C93.2977 107.799 93.5011 108.336 93.9078 108.743C94.3146 109.15 94.8521 109.353 95.5204 109.353H97.1983C97.852 109.353 98.3823 109.186 98.789 108.852C99.1958 108.503 99.3992 108.046 99.3992 107.479H101.382C101.382 108.569 100.997 109.448 100.227 110.116C99.4573 110.784 98.4404 111.118 97.1765 111.118H95.5204ZM99.3992 104.472V104.036C99.3992 103.309 99.2031 102.728 98.8108 102.292C98.4331 101.857 97.9319 101.639 97.3072 101.639H95.5204C94.8521 101.639 94.3146 101.871 93.9078 102.336C93.5011 102.786 93.2977 103.389 93.2977 104.145V104.472H99.3992Z" fill="white"/>
<path d="M107.278 111.118C106.101 111.118 105.157 110.799 104.445 110.16C103.733 109.506 103.377 108.649 103.377 107.588H105.36C105.36 108.126 105.534 108.561 105.883 108.896C106.232 109.23 106.697 109.397 107.278 109.397H109.195C109.747 109.397 110.19 109.295 110.525 109.092C110.859 108.874 111.026 108.591 111.026 108.242V107.61C111.026 107.377 110.924 107.174 110.721 107C110.532 106.811 110.285 106.687 109.98 106.629L106.21 105.975C105.411 105.83 104.772 105.532 104.292 105.082C103.813 104.617 103.573 104.079 103.573 103.469V102.75C103.573 101.893 103.915 101.203 104.597 100.68C105.28 100.157 106.195 99.8953 107.343 99.8953H109.174C110.263 99.8953 111.135 100.193 111.788 100.789C112.457 101.384 112.791 102.176 112.791 103.164H110.808C110.793 102.699 110.634 102.329 110.328 102.053C110.038 101.762 109.653 101.617 109.174 101.617H107.365C106.827 101.617 106.399 101.726 106.079 101.944C105.774 102.162 105.622 102.452 105.622 102.815V103.36C105.622 103.593 105.723 103.796 105.927 103.97C106.13 104.145 106.392 104.268 106.711 104.341L110.525 105.017C111.28 105.147 111.89 105.438 112.355 105.888C112.834 106.339 113.074 106.862 113.074 107.457V108.307C113.074 109.15 112.718 109.833 112.006 110.356C111.295 110.864 110.358 111.118 109.195 111.118H107.278Z" fill="white"/>
<path d="M119.773 110.944C118.582 110.944 117.717 110.683 117.18 110.16C116.657 109.637 116.395 108.794 116.395 107.632V101.835H114.478V100.07H116.417V96.7789H118.422V100.07H121.255V101.835H118.422V107.588C118.422 108.155 118.531 108.561 118.749 108.808C118.981 109.055 119.352 109.179 119.86 109.179H121.255V110.944H119.773Z" fill="white"/>
<path d="M126.853 111.118C125.764 111.118 124.892 110.842 124.238 110.29C123.584 109.724 123.258 108.976 123.258 108.046V107.327C123.258 106.411 123.599 105.678 124.282 105.126C124.965 104.559 125.858 104.276 126.962 104.276H128.335C128.771 104.276 129.236 104.341 129.73 104.472C130.223 104.602 130.645 104.784 130.993 105.017V103.426C130.993 102.888 130.826 102.46 130.492 102.14C130.158 101.806 129.722 101.639 129.185 101.639H127.398C126.846 101.639 126.403 101.769 126.069 102.031C125.735 102.292 125.567 102.634 125.567 103.055H123.563C123.563 102.111 123.911 101.348 124.609 100.767C125.32 100.186 126.25 99.8953 127.398 99.8953H129.185C130.332 99.8953 131.255 100.222 131.952 100.876C132.65 101.515 132.998 102.365 132.998 103.426V110.944H131.102V109.484C130.768 109.978 130.332 110.378 129.795 110.683C129.257 110.973 128.713 111.118 128.161 111.118H126.853ZM128.27 109.44C128.909 109.44 129.475 109.259 129.969 108.896C130.463 108.518 130.805 108.017 130.993 107.392V106.738C130.717 106.491 130.34 106.295 129.86 106.15C129.381 106.004 128.887 105.932 128.379 105.932H126.984C126.475 105.932 126.061 106.063 125.742 106.324C125.422 106.586 125.262 106.934 125.262 107.37V108.024C125.262 108.46 125.415 108.808 125.72 109.07C126.04 109.317 126.461 109.44 126.984 109.44H128.27Z" fill="white"/>
<path d="M141.179 111.118L140.743 112.056H140.918C141.499 112.056 141.956 112.208 142.291 112.513C142.639 112.833 142.814 113.254 142.814 113.777V114.082C142.814 114.663 142.588 115.128 142.138 115.477C141.688 115.826 141.085 116 140.329 116H138.826V114.714H140.22C140.526 114.714 140.773 114.649 140.961 114.518C141.15 114.402 141.245 114.242 141.245 114.039V113.777C141.245 113.588 141.165 113.436 141.005 113.32C140.845 113.203 140.627 113.145 140.351 113.145H139.196V112.121L139.61 111.118C138.375 111.104 137.38 110.726 136.625 109.985C135.87 109.23 135.492 108.249 135.492 107.043V104.123C135.492 102.845 135.87 101.82 136.625 101.05C137.395 100.28 138.405 99.8953 139.654 99.8953H141.419C142.61 99.8953 143.569 100.229 144.295 100.898C145.022 101.566 145.385 102.452 145.385 103.556H143.38C143.38 102.99 143.199 102.539 142.835 102.205C142.487 101.857 142.015 101.682 141.419 101.682H139.676C139.036 101.682 138.513 101.915 138.107 102.38C137.714 102.83 137.518 103.433 137.518 104.188V106.978C137.518 107.69 137.722 108.264 138.129 108.699C138.535 109.121 139.058 109.331 139.697 109.331H141.441C142.051 109.331 142.538 109.121 142.901 108.699C143.279 108.264 143.467 107.69 143.467 106.978H145.472C145.472 108.213 145.102 109.215 144.361 109.985C143.62 110.741 142.647 111.118 141.441 111.118H141.179Z" fill="white"/>
<path d="M151.594 111.118C150.316 111.118 149.284 110.733 148.5 109.963C147.73 109.193 147.345 108.184 147.345 106.934V104.101C147.345 102.837 147.737 101.82 148.522 101.05C149.306 100.28 150.345 99.8953 151.638 99.8953H153.468C154.761 99.8953 155.8 100.28 156.584 101.05C157.369 101.82 157.761 102.837 157.761 104.101V106.934C157.761 108.184 157.362 109.193 156.563 109.963C155.778 110.733 154.739 111.118 153.446 111.118H151.594ZM153.425 109.331C154.122 109.331 154.681 109.106 155.103 108.656C155.524 108.206 155.735 107.603 155.735 106.847V104.167C155.735 103.411 155.524 102.808 155.103 102.358C154.696 101.907 154.151 101.682 153.468 101.682H151.638C150.955 101.682 150.403 101.907 149.982 102.358C149.575 102.808 149.372 103.411 149.372 104.167V106.847C149.372 107.603 149.575 108.206 149.982 108.656C150.388 109.106 150.933 109.331 151.616 109.331H153.425ZM153.882 98.5659C153.548 98.5659 153.265 98.4933 153.032 98.348C152.8 98.2027 152.539 97.9921 152.248 97.716C152.03 97.5126 151.856 97.3673 151.725 97.2802C151.609 97.193 151.478 97.1494 151.333 97.1494H151.137C150.919 97.1494 150.737 97.2511 150.592 97.4545C150.461 97.6579 150.388 97.9339 150.374 98.2826H148.849C148.863 97.5126 149.074 96.8952 149.48 96.4303C149.887 95.9653 150.425 95.7329 151.093 95.7329H151.267C151.631 95.7329 151.943 95.8128 152.204 95.9726C152.466 96.1324 152.742 96.3576 153.032 96.6482C153.062 96.6772 153.134 96.7426 153.25 96.8443C153.381 96.946 153.49 97.0259 153.577 97.084C153.664 97.1276 153.752 97.1494 153.839 97.1494H154.013C154.216 97.1494 154.383 97.0477 154.514 96.8443C154.645 96.6264 154.718 96.3503 154.732 96.0162H156.279C156.25 96.7862 156.032 97.4037 155.626 97.8686C155.233 98.3335 154.718 98.5659 154.078 98.5659H153.882Z" fill="white"/>
<path d="M164.192 111.118C162.914 111.118 161.882 110.755 161.098 110.029C160.328 109.288 159.943 108.322 159.943 107.13V104.123C159.943 102.845 160.328 101.82 161.098 101.05C161.882 100.28 162.914 99.8953 164.192 99.8953H165.979C167.214 99.8953 168.209 100.273 168.965 101.028C169.72 101.784 170.098 102.786 170.098 104.036V106.084H161.97V107.13C161.97 107.799 162.173 108.336 162.58 108.743C162.986 109.15 163.524 109.353 164.192 109.353H165.87C166.524 109.353 167.054 109.186 167.461 108.852C167.868 108.503 168.071 108.046 168.071 107.479H170.054C170.054 108.569 169.669 109.448 168.899 110.116C168.129 110.784 167.112 111.118 165.848 111.118H164.192ZM168.071 104.472V104.036C168.071 103.309 167.875 102.728 167.483 102.292C167.105 101.857 166.604 101.639 165.979 101.639H164.192C163.524 101.639 162.986 101.871 162.58 102.336C162.173 102.786 161.97 103.389 161.97 104.145V104.472H168.071Z" fill="white"/>
<path d="M175.95 111.118C174.773 111.118 173.829 110.799 173.117 110.16C172.405 109.506 172.049 108.649 172.049 107.588H174.032C174.032 108.126 174.206 108.561 174.555 108.896C174.904 109.23 175.368 109.397 175.95 109.397H177.867C178.419 109.397 178.862 109.295 179.196 109.092C179.531 108.874 179.698 108.591 179.698 108.242V107.61C179.698 107.377 179.596 107.174 179.393 107C179.204 106.811 178.957 106.687 178.652 106.629L174.882 105.975C174.083 105.83 173.444 105.532 172.964 105.082C172.485 104.617 172.245 104.079 172.245 103.469V102.75C172.245 101.893 172.586 101.203 173.269 100.68C173.952 100.157 174.867 99.8953 176.015 99.8953H177.845C178.935 99.8953 179.807 100.193 180.46 100.789C181.129 101.384 181.463 102.176 181.463 103.164H179.48C179.465 102.699 179.305 102.329 179 102.053C178.71 101.762 178.325 101.617 177.845 101.617H176.037C175.499 101.617 175.071 101.726 174.751 101.944C174.446 102.162 174.293 102.452 174.293 102.815V103.36C174.293 103.593 174.395 103.796 174.599 103.97C174.802 104.145 175.063 104.268 175.383 104.341L179.196 105.017C179.952 105.147 180.562 105.438 181.027 105.888C181.506 106.339 181.746 106.862 181.746 107.457V108.307C181.746 109.15 181.39 109.833 180.678 110.356C179.966 110.864 179.029 111.118 177.867 111.118H175.95Z" fill="white"/>
<path d="M193.553 111.118C192.362 111.118 191.396 110.733 190.655 109.963C189.928 109.193 189.565 108.176 189.565 106.912V104.341C189.565 103.469 189.74 102.699 190.088 102.031C190.437 101.348 190.924 100.825 191.548 100.462C192.188 100.084 192.921 99.8953 193.749 99.8953H195.231C195.696 99.8953 196.154 100.004 196.604 100.222C197.054 100.44 197.417 100.731 197.693 101.094V95.6893H199.742V110.944H197.802V109.397C197.483 109.905 197.061 110.319 196.538 110.639C196.015 110.959 195.492 111.118 194.969 111.118H193.553ZM195.057 109.331C195.739 109.331 196.335 109.055 196.844 108.503C197.352 107.937 197.635 107.268 197.693 106.498V104.036C197.592 103.324 197.323 102.757 196.887 102.336C196.466 101.9 195.957 101.682 195.362 101.682H193.902C193.219 101.682 192.66 101.937 192.224 102.445C191.803 102.939 191.592 103.6 191.592 104.428V106.847C191.592 107.588 191.788 108.191 192.18 108.656C192.587 109.106 193.095 109.331 193.706 109.331H195.057Z" fill="white"/>
<path d="M204.207 98.6313C203.786 98.6313 203.444 98.5078 203.183 98.2608C202.921 97.9993 202.791 97.6652 202.791 97.2584C202.791 96.8516 202.921 96.5247 203.183 96.2777C203.444 96.0162 203.786 95.8854 204.207 95.8854C204.628 95.8854 204.963 96.0162 205.209 96.2777C205.471 96.5247 205.602 96.8516 205.602 97.2584C205.602 97.6652 205.471 97.9993 205.209 98.2608C204.963 98.5078 204.628 98.6313 204.207 98.6313ZM203.183 100.07H205.209V110.944H203.183V100.07Z" fill="white"/>
<path d="M212.413 115.368C211.381 115.368 210.524 115.085 209.841 114.518C209.173 113.951 208.803 113.211 208.73 112.295H210.757C210.8 112.688 210.974 113.007 211.279 113.254C211.585 113.501 211.962 113.625 212.413 113.625H214.265C214.919 113.625 215.427 113.392 215.79 112.927C216.168 112.477 216.357 111.852 216.357 111.053V109.593C216.037 109.985 215.638 110.305 215.158 110.552C214.679 110.799 214.221 110.922 213.785 110.922H212.217C211.432 110.922 210.735 110.748 210.125 110.399C209.514 110.051 209.042 109.557 208.708 108.917C208.374 108.278 208.207 107.544 208.207 106.716V104.276C208.207 103.418 208.381 102.656 208.73 101.987C209.093 101.319 209.594 100.803 210.234 100.44C210.873 100.077 211.606 99.8953 212.434 99.8953H213.873C214.338 99.8953 214.817 100.026 215.311 100.288C215.805 100.535 216.19 100.854 216.466 101.246V100.07H218.383V111.053C218.383 112.39 218.013 113.443 217.272 114.213C216.546 114.983 215.543 115.368 214.265 115.368H212.413ZM213.851 109.157C214.519 109.157 215.086 108.888 215.551 108.351C216.03 107.813 216.299 107.123 216.357 106.281V103.992C216.299 103.309 216.052 102.757 215.616 102.336C215.18 101.9 214.657 101.682 214.047 101.682H212.543C211.861 101.682 211.301 101.929 210.865 102.423C210.444 102.903 210.234 103.542 210.234 104.341V106.651C210.234 107.392 210.43 107.995 210.822 108.46C211.214 108.925 211.708 109.157 212.304 109.157H213.851Z" fill="white"/>
<path d="M222.849 98.6313C222.427 98.6313 222.086 98.5078 221.825 98.2608C221.563 97.9993 221.432 97.6652 221.432 97.2584C221.432 96.8516 221.563 96.5247 221.825 96.2777C222.086 96.0162 222.427 95.8854 222.849 95.8854C223.27 95.8854 223.604 96.0162 223.851 96.2777C224.113 96.5247 224.243 96.8516 224.243 97.2584C224.243 97.6652 224.113 97.9993 223.851 98.2608C223.604 98.5078 223.27 98.6313 222.849 98.6313ZM221.825 100.07H223.851V110.944H221.825V100.07Z" fill="white"/>
<path d="M231.708 110.944C230.517 110.944 229.652 110.683 229.115 110.16C228.592 109.637 228.33 108.794 228.33 107.632V101.835H226.413V100.07H228.352V96.7789H230.357V100.07H233.19V101.835H230.357V107.588C230.357 108.155 230.466 108.561 230.684 108.808C230.916 109.055 231.287 109.179 231.795 109.179H233.19V110.944H231.708Z" fill="white"/>
<path d="M238.788 111.118C237.699 111.118 236.827 110.842 236.173 110.29C235.519 109.724 235.193 108.976 235.193 108.046V107.327C235.193 106.411 235.534 105.678 236.217 105.126C236.899 104.559 237.793 104.276 238.897 104.276H240.27C240.706 104.276 241.171 104.341 241.665 104.472C242.158 104.602 242.58 104.784 242.928 105.017V103.426C242.928 102.888 242.761 102.46 242.427 102.14C242.093 101.806 241.657 101.639 241.12 101.639H239.333C238.781 101.639 238.338 101.769 238.004 102.031C237.669 102.292 237.502 102.634 237.502 103.055H235.498C235.498 102.111 235.846 101.348 236.544 100.767C237.255 100.186 238.185 99.8953 239.333 99.8953H241.12C242.267 99.8953 243.19 100.222 243.887 100.876C244.585 101.515 244.933 102.365 244.933 103.426V110.944H243.037V109.484C242.703 109.978 242.267 110.378 241.73 110.683C241.192 110.973 240.648 111.118 240.096 111.118H238.788ZM240.205 109.44C240.844 109.44 241.41 109.259 241.904 108.896C242.398 108.518 242.74 108.017 242.928 107.392V106.738C242.652 106.491 242.275 106.295 241.795 106.15C241.316 106.004 240.822 105.932 240.313 105.932H238.919C238.41 105.932 237.996 106.063 237.677 106.324C237.357 106.586 237.197 106.934 237.197 107.37V108.024C237.197 108.46 237.35 108.808 237.655 109.07C237.975 109.317 238.396 109.44 238.919 109.44H240.205Z" fill="white"/>
<path d="M249.279 98.6313C248.858 98.6313 248.516 98.5078 248.255 98.2608C247.993 97.9993 247.863 97.6652 247.863 97.2584C247.863 96.8516 247.993 96.5247 248.255 96.2777C248.516 96.0162 248.858 95.8854 249.279 95.8854C249.7 95.8854 250.034 96.0162 250.281 96.2777C250.543 96.5247 250.674 96.8516 250.674 97.2584C250.674 97.6652 250.543 97.9993 250.281 98.2608C250.034 98.5078 249.7 98.6313 249.279 98.6313ZM248.255 100.07H250.281V110.944H248.255V100.07Z" fill="white"/>
<path d="M257.07 111.118C255.894 111.118 254.949 110.799 254.238 110.16C253.526 109.506 253.17 108.649 253.17 107.588H255.153C255.153 108.126 255.327 108.561 255.676 108.896C256.025 109.23 256.489 109.397 257.07 109.397H258.988C259.54 109.397 259.983 109.295 260.317 109.092C260.652 108.874 260.819 108.591 260.819 108.242V107.61C260.819 107.377 260.717 107.174 260.513 107C260.325 106.811 260.078 106.687 259.773 106.629L256.003 105.975C255.204 105.83 254.565 105.532 254.085 105.082C253.606 104.617 253.366 104.079 253.366 103.469V102.75C253.366 101.893 253.707 101.203 254.39 100.68C255.073 100.157 255.988 99.8953 257.136 99.8953H258.966C260.056 99.8953 260.928 100.193 261.581 100.789C262.25 101.384 262.584 102.176 262.584 103.164H260.601C260.586 102.699 260.426 102.329 260.121 102.053C259.831 101.762 259.446 101.617 258.966 101.617H257.158C256.62 101.617 256.192 101.726 255.872 101.944C255.567 102.162 255.414 102.452 255.414 102.815V103.36C255.414 103.593 255.516 103.796 255.719 103.97C255.923 104.145 256.184 104.268 256.504 104.341L260.317 105.017C261.073 105.147 261.683 105.438 262.148 105.888C262.627 106.339 262.867 106.862 262.867 107.457V108.307C262.867 109.15 262.511 109.833 261.799 110.356C261.087 110.864 260.15 111.118 258.988 111.118H257.07Z" fill="white"/>
<path d="M150.557 46.8046L170.367 11.8869V35.6606L188.196 39.6229L170.367 75.2835V49.5286L150.557 46.8046Z" fill="#7747A7"/>
<path d="M217.911 8.72146H229.847V78.4489H217.911V8.72146Z" fill="#FFC30D"/>
<path d="M268.249 79.2458C263.148 79.2458 258.66 78.1833 254.783 76.0583C250.975 73.8668 248.016 70.8121 245.908 66.8941C243.8 62.9097 242.745 58.3276 242.745 53.1478V34.0226C242.745 28.8428 243.8 24.2939 245.908 20.3759C248.084 16.3915 251.111 13.3368 254.987 11.2117C258.932 9.0203 263.454 7.92458 268.555 7.92458H279.776C284.673 7.92458 288.992 8.92069 292.732 10.9129C296.473 12.8387 299.363 15.5946 301.403 19.1806C303.444 22.7002 304.464 26.7842 304.464 31.4327H292.732C292.732 27.4483 291.542 24.2607 289.162 21.8701C286.781 19.413 283.653 18.1845 279.776 18.1845H268.555C264.406 18.1845 261.04 19.6786 258.456 22.667C255.939 25.5889 254.681 29.5069 254.681 34.421V52.7494C254.681 57.6635 255.905 61.6147 258.354 64.603C260.87 67.5249 264.168 68.9859 268.249 68.9859H279.878C283.823 68.9859 287.054 67.6246 289.57 64.9019C292.086 62.1792 293.344 58.6928 293.344 54.4428V51.056H273.554V40.8957H305.076V54.4428C305.076 59.2905 304.022 63.6069 301.914 67.3921C299.805 71.1109 296.847 74.0328 293.038 76.1579C289.23 78.2165 284.843 79.2458 279.878 79.2458H268.249Z" fill="#FFC30D"/>
</svg>
