<?xml version="1.0" encoding="utf-8"?>
<!-- Generator: Adobe Illustrator 24.3.0, SVG Export Plug-In . SVG Version: 6.00 Build 0)  -->
<svg width="340" height="97" viewBox="0 0 340 97" fill="none" xmlns="http://www.w3.org/2000/svg">
<path d="M0.272728 95V1.90909H11.5455V85H54.8182V95H0.272728ZM147.193 48.4545C147.193 58.2727 145.42 66.7576 141.875 73.9091C138.33 81.0606 133.466 86.5758 127.284 90.4545C121.102 94.3333 114.042 96.2727 106.102 96.2727C98.1629 96.2727 91.1023 94.3333 84.9205 90.4545C78.7386 86.5758 73.875 81.0606 70.3295 73.9091C66.7841 66.7576 65.0114 58.2727 65.0114 48.4545C65.0114 38.6364 66.7841 30.1515 70.3295 23C73.875 15.8485 78.7386 10.3333 84.9205 6.45454C91.1023 2.57575 98.1629 0.63636 106.102 0.63636C114.042 0.63636 121.102 2.57575 127.284 6.45454C133.466 10.3333 138.33 15.8485 141.875 23C145.42 30.1515 147.193 38.6364 147.193 48.4545ZM136.284 48.4545C136.284 40.3939 134.936 33.5909 132.239 28.0455C129.572 22.5 125.951 18.303 121.375 15.4545C116.83 12.6061 111.739 11.1818 106.102 11.1818C100.466 11.1818 95.3598 12.6061 90.7841 15.4545C86.2386 18.303 82.6174 22.5 79.9205 28.0455C77.2538 33.5909 75.9205 40.3939 75.9205 48.4545C75.9205 56.5151 77.2538 63.3182 79.9205 68.8636C82.6174 74.4091 86.2386 78.6061 90.7841 81.4545C95.3598 84.303 100.466 85.7273 106.102 85.7273C111.739 85.7273 116.83 84.303 121.375 81.4545C125.951 78.6061 129.572 74.4091 132.239 68.8636C134.936 63.3182 136.284 56.5151 136.284 48.4545ZM229.784 31C228.784 27.9394 227.466 25.197 225.83 22.7727C224.223 20.3182 222.299 18.2273 220.057 16.5C217.845 14.7727 215.33 13.4545 212.511 12.5454C209.693 11.6364 206.602 11.1818 203.239 11.1818C197.723 11.1818 192.708 12.6061 188.193 15.4545C183.678 18.303 180.087 22.5 177.42 28.0455C174.754 33.5909 173.42 40.3939 173.42 48.4545C173.42 56.5151 174.769 63.3182 177.466 68.8636C180.163 74.4091 183.814 78.6061 188.42 81.4545C193.027 84.303 198.208 85.7273 203.966 85.7273C209.299 85.7273 213.996 84.5909 218.057 82.3182C222.148 80.0152 225.33 76.7727 227.602 72.5909C229.905 68.3788 231.057 63.4242 231.057 57.7273L234.511 58.4545H206.511V48.4545H241.966V58.4545C241.966 66.1212 240.33 72.7879 237.057 78.4545C233.814 84.1212 229.33 88.5152 223.602 91.6364C217.905 94.7273 211.36 96.2727 203.966 96.2727C195.723 96.2727 188.481 94.3333 182.239 90.4545C176.027 86.5758 171.178 81.0606 167.693 73.9091C164.239 66.7576 162.511 58.2727 162.511 48.4545C162.511 41.0909 163.496 34.4697 165.466 28.5909C167.466 22.6818 170.284 17.6515 173.92 13.5C177.557 9.34849 181.86 6.16667 186.83 3.95454C191.799 1.74242 197.269 0.63636 203.239 0.63636C208.148 0.63636 212.723 1.37878 216.966 2.86363C221.239 4.31818 225.042 6.39393 228.375 9.0909C231.739 11.7576 234.542 14.9545 236.784 18.6818C239.027 22.3788 240.572 26.4848 241.42 31H229.784ZM339.818 48.4545C339.818 58.2727 338.045 66.7576 334.5 73.9091C330.955 81.0606 326.091 86.5758 319.909 90.4545C313.727 94.3333 306.667 96.2727 298.727 96.2727C290.788 96.2727 283.727 94.3333 277.545 90.4545C271.364 86.5758 266.5 81.0606 262.955 73.9091C259.409 66.7576 257.636 58.2727 257.636 48.4545C257.636 38.6364 259.409 30.1515 262.955 23C266.5 15.8485 271.364 10.3333 277.545 6.45454C283.727 2.57575 290.788 0.63636 298.727 0.63636C306.667 0.63636 313.727 2.57575 319.909 6.45454C326.091 10.3333 330.955 15.8485 334.5 23C338.045 30.1515 339.818 38.6364 339.818 48.4545ZM328.909 48.4545C328.909 40.3939 327.561 33.5909 324.864 28.0455C322.197 22.5 318.576 18.303 314 15.4545C309.455 12.6061 304.364 11.1818 298.727 11.1818C293.091 11.1818 287.985 12.6061 283.409 15.4545C278.864 18.303 275.242 22.5 272.545 28.0455C269.879 33.5909 268.545 40.3939 268.545 48.4545C268.545 56.5151 269.879 63.3182 272.545 68.8636C275.242 74.4091 278.864 78.6061 283.409 81.4545C287.985 84.303 293.091 85.7273 298.727 85.7273C304.364 85.7273 309.455 84.303 314 81.4545C318.576 78.6061 322.197 74.4091 324.864 68.8636C327.561 63.3182 328.909 56.5151 328.909 48.4545Z" fill="white"/>
</svg>

